HIERARCHY
ROOT Hips
{
	OFFSET 0.00000 0.00000 0.00000
	CHANNELS 6 Xposition Yposition Zposition Zrotation Yrotation Xrotation 
	JOINT LHipJoint
	{
		OFFSET 0 0 0
		CHANNELS 3 Zrotation Yrotation Xrotation
		JOINT LeftHip
		{
			OFFSET 1.82298 -1.58346 0.87084
			CHANNELS 3 Zrotation Yrotation Xrotation
			JOINT LeftKnee
			{
				OFFSET 2.43790 -6.69809 0.00000
				CHANNELS 3 Zrotation Yrotation Xrotation
				JOINT LeftAnkle
				{
					OFFSET 2.59288 -7.12389 0.00000
					CHANNELS 3 Zrotation Yrotation Xrotation
					JOINT LeftToe
					{
						OFFSET 0.14552 -0.39981 2.13160
						CHANNELS 3 Zrotation Yrotation Xrotation
						End Site
						{
							OFFSET 0.00000 -0.00000 1.09427
						}
					}
				}
			}
		}
	}
	JOINT RHipJoint
	{
		OFFSET 0 0 0
		CHANNELS 3 Zrotation Yrotation Xrotation
		JOINT RightHip
		{
			OFFSET -1.77229 -1.58346 0.87084
			CHANNELS 3 Zrotation Yrotation Xrotation
			JOINT RightKnee
			{
				OFFSET -2.50703 -6.88801 0.00000
				CHANNELS 3 Zrotation Yrotation Xrotation
				JOINT RightAnkle
				{
					OFFSET -2.61620 -7.18796 0.00000
					CHANNELS 3 Zrotation Yrotation Xrotation
					JOINT RightToe
					{
						OFFSET -0.15190 -0.41735 2.15974
						CHANNELS 3 Zrotation Yrotation Xrotation
						End Site
						{
							OFFSET -0.00000 -0.00000 1.10919
						}
					}
				}
			}
		}
	}
	JOINT lowerback
	{
		OFFSET 0 0 0
		CHANNELS 3 Zrotation Yrotation Xrotation
		JOINT Chest
		{
			OFFSET -0.03602 2.12423 -0.30249
			CHANNELS 3 Zrotation Yrotation Xrotation
			JOINT Chest2
			{
				OFFSET 0.02717 2.10043 0.12912
				CHANNELS 3 Zrotation Yrotation Xrotation
				JOINT lowerneck
				{
					OFFSET 0 0 0
					CHANNELS 3 Zrotation Yrotation Xrotation
					JOINT Neck
					{
						OFFSET -0.06371 1.88656 0.11602
						CHANNELS 3 Zrotation Yrotation Xrotation
						JOINT Head
						{
							OFFSET 0.08208 1.87759 -0.11505
							CHANNELS 3 Zrotation Yrotation Xrotation
							End Site
							{
								OFFSET 0.03382 1.93090 -0.05483
							}
						}
					}
				}
				JOINT LeftCollar
				{
					OFFSET 0 0 0
					CHANNELS 3 Zrotation Yrotation Xrotation
					JOINT LeftShoulder
					{
						OFFSET 3.30903 1.40357 0.20156
CHANNELS 3 Zrotation Xrotation Yrotation
						JOINT LeftElbow
						{
OFFSET 0 -5.433010 0.000000
CHANNELS 3 Zrotation Xrotation Yrotation
							JOINT LeftWrist
							{
OFFSET 0 -3.159360 0.000000
CHANNELS 3 Zrotation Xrotation Yrotation
								JOINT lhand
								{
									OFFSET 0 0 0
CHANNELS 3 Zrotation Xrotation Yrotation
									JOINT LFingers
									{
OFFSET 0 -0.712830 0.000000
CHANNELS 3 Zrotation Xrotation Yrotation
										End Site
										{
OFFSET 0 -0.574700 0.000000
										}
									}
								}
								JOINT LThumb
								{
OFFSET 0 0.000000 0.000000
CHANNELS 3 Zrotation Xrotation Yrotation
									End Site
									{
OFFSET 0 -0.583470 0.583470
									}
								}
							}
						}
					}
				}
				JOINT RightCollar
				{
					OFFSET 0 0 0
					CHANNELS 3 Zrotation Yrotation Xrotation
					JOINT RightShoulder
					{
						OFFSET -3.12947 1.60037 -0.00464
CHANNELS 3 Zrotation Xrotation Yrotation
						JOINT RightElbow
						{
OFFSET 0 -5.341940 0.000000
CHANNELS 3 Zrotation Xrotation Yrotation
							JOINT RightWrist
							{
OFFSET 0 -3.193510 0.000000
CHANNELS 3 Zrotation Xrotation Yrotation
								JOINT rhand
								{
									OFFSET 0 0 0
CHANNELS 3 Zrotation Xrotation Yrotation
									JOINT RFingers
									{
OFFSET 0 -0.743860 0.000000
CHANNELS 3 Zrotation Xrotation Yrotation
										End Site
										{
OFFSET 0 -0.599720 0.000000
										}
									}
								}
								JOINT RThumb
								{
OFFSET 0 0.000000 0.000000
CHANNELS 3 Zrotation Xrotation Yrotation
									End Site
									{
OFFSET 0 -0.608880 0.608880
									}
								}
							}
						}
					}
				}
			}
		}
	}
}
MOTION
Frames: 6
Frame Time: 0.008333333333333333
-1.425000 14.390700 -34.354200 -9.341600 -27.191800 6.342800 0.000000 0.000000 0.000000 -2.222300 14.178800 -62.276300 14.880000 19.359500 74.875100 0.781600 -4.039900 -15.828600 0.055600 1.521400 4.184700 0.000000 0.000000 0.000000 10.148900 -9.312200 10.377700 -3.395900 -11.309900 33.332200 -1.462800 -17.952700 -35.235000 -2.407100 9.666900 -27.904700 1.412900 3.732100 10.771900 2.319100 5.319200 -0.974200 0.757200 2.589300 -7.164200 -11.348400 -9.621600 -0.598600 8.716900 -13.363400 9.406100 3.820300 -6.688600 4.258700 -0.000000 -0.000000 0.000000 6.183900 -3.524100 -17.197000 13.997700 -22.731400 2.827200 27.910300 31.557200 -21.775600 0.000000 0.000000 0.000000 -7.125000 0.000000 0.000000 -0.935900 54.303300 0.214000 -0.000000 -0.000000 0.000000 -13.241700 4.815800 40.296300 -21.937800 -32.906600 -6.552000 -10.626000 16.068400 40.090000 0.000000 0.000000 0.000000 7.125000 0.000000 -0.000000 34.478800 67.548300 -19.609400
-1.444092 14.393494 -34.350512 -9.267802 -27.176756 6.350075 0.000000 0.000000 0.000000 -2.242737 14.159034 -62.277192 14.869735 19.356959 74.844046 0.775455 -3.952459 -15.772393 0.056012 1.527162 4.200618 0.000000 0.000000 0.000000 10.127494 -9.371166 10.338144 -3.407159 -11.326659 33.389594 -1.506582 -17.806376 -35.337260 -2.356568 9.572347 -27.602666 1.275432 3.694132 10.804023 2.361130 5.256690 -1.019023 0.884282 2.564257 -7.246398 -11.407316 -9.545021 -0.522433 8.726326 -13.268958 9.444686 3.842710 -6.645947 4.252776 0.000000 0.000000 0.000000 6.119094 -3.462248 -17.070259 14.041876 -22.794594 2.844318 27.975751 31.547518 -21.904346 0.000000 0.000000 0.000000 -7.125000 0.000000 0.000000 -0.898730 54.456701 0.208859 0.000000 0.000000 0.000000 -13.283862 4.846607 40.246402 -21.924543 -32.891652 -6.544784 -10.616828 16.208202 39.917102 0.000000 0.000000 0.000000 7.125000 0.000000 0.000000 34.220871 67.408208 -19.343422
-1.462478 14.396035 -34.345227 -9.186962 -27.193908 6.375556 0.000000 0.000000 0.000000 -2.268587 14.160474 -62.262863 14.859678 19.354340 74.813653 0.773553 -3.897074 -15.758106 0.051597 1.466080 4.032261 0.000000 0.000000 0.000000 10.088880 -9.411710 10.301233 -3.408751 -11.329036 33.397687 -1.533931 -17.713850 -35.400039 -2.330828 9.523602 -27.447365 1.222142 3.738653 10.729097 2.311083 5.304450 -1.037464 0.857611 2.589227 -7.223957 -11.272667 -9.605846 -0.565700 8.627130 -13.354445 9.640554 3.780053 -6.686074 4.312560 0.000000 0.000000 0.000000 6.241650 -3.622031 -17.250476 13.979019 -22.704741 2.819980 27.845981 31.629495 -22.039655 0.000000 0.000000 0.000000 -7.125000 0.000000 0.000000 -1.071423 54.577019 0.252133 0.000000 0.000000 0.000000 -13.163630 4.861119 39.954494 -21.801071 -32.751481 -6.477854 -10.487124 16.342240 40.163668 0.000000 0.000000 0.000000 7.125000 0.000000 0.000000 34.741191 67.564032 -19.785350
-1.478975 14.394981 -34.339113 -9.192473 -27.180284 6.411022 0.000000 0.000000 0.000000 -2.190733 14.148786 -62.251958 14.871979 19.357495 74.850914 0.777342 -3.884901 -15.799043 0.049245 1.431989 3.938299 0.000000 0.000000 0.000000 10.119833 -9.471488 10.356937 -3.391587 -11.303419 33.310109 -1.536843 -17.707019 -35.409744 -2.331980 9.525787 -27.454416 1.278753 3.767230 10.709301 2.279010 5.348205 -1.066048 0.785574 2.607630 -7.235409 -11.198599 -9.670954 -0.754207 8.547736 -13.437820 9.936792 3.722633 -6.722256 4.432092 0.000000 0.000000 0.000000 6.358531 -3.768137 -17.399657 13.923768 -22.625677 2.798714 27.818363 31.615650 -21.857437 0.000000 0.000000 0.000000 -7.125000 0.000000 0.000000 -1.054257 54.373328 0.242882 0.000000 0.000000 0.000000 -13.125673 4.956788 39.849828 -21.766959 -32.712637 -6.459476 -10.439146 16.274503 39.944439 0.000000 0.000000 0.000000 7.125000 0.000000 0.000000 34.450267 67.376360 -19.460340
-1.494657 14.394060 -34.337990 -9.142083 -27.180351 6.455857 0.000000 0.000000 0.000000 -2.184288 14.119064 -62.287625 14.869116 19.356770 74.842147 0.773835 -3.802642 -15.770631 0.046479 1.390979 3.825350 0.000000 0.000000 0.000000 10.143727 -9.435047 10.337955 -3.391680 -11.303621 33.310708 -1.523287 -17.798576 -35.421388 -2.357095 9.573389 -27.605970 1.242286 3.763179 10.734631 2.233223 5.338555 -1.139297 0.754980 2.602432 -7.326713 -11.245267 -9.715769 -0.726535 8.561310 -13.505558 9.999356 3.728343 -6.757501 4.457695 0.000000 0.000000 0.000000 6.483764 -3.748485 -17.436931 13.974804 -22.698710 2.818355 27.891994 31.471907 -21.809951 0.000000 0.000000 0.000000 -7.125000 0.000000 0.000000 -0.963978 54.336845 0.221075 0.000000 0.000000 0.000000 -13.147007 5.156234 39.973216 -21.846805 -32.803449 -6.502612 -10.257589 16.133185 40.043973 0.000000 0.000000 0.000000 7.125000 0.000000 0.000000 34.795661 67.400037 -19.692599
-1.507752 14.391668 -34.334949 -9.159961 -27.206209 6.475052 0.000000 0.000000 0.000000 -2.102955 14.141983 -62.264462 14.879104 19.359326 74.872217 0.776551 -3.784320 -15.801688 0.044688 1.364002 3.751050 0.000000 0.000000 0.000000 10.172584 -9.478105 10.333648 -3.393989 -11.307127 33.322707 -1.497874 -17.921025 -35.397278 -2.378271 9.613192 -27.732918 1.317651 3.772287 10.772098 2.182950 5.359687 -1.182452 0.652797 2.607754 -7.382395 -11.151309 -9.681474 -0.731337 8.630595 -13.474661 10.052303 3.736943 -6.736407 4.469455 0.000000 0.000000 0.000000 6.619977 -3.706358 -17.458915 14.041314 -22.793724 2.844134 27.870786 31.603795 -22.203186 0.000000 0.000000 0.000000 -7.125000 0.000000 0.000000 -1.087393 54.759981 0.260718 0.000000 0.000000 0.000000 -13.038643 5.225641 39.802325 -21.757334 -32.701651 -6.454251 -10.212002 16.203099 40.061444 0.000000 0.000000 0.000000 7.125000 0.000000 0.000000 34.870867 67.399929 -19.739343
